<?xml version="1.0" encoding="utf-8"?>
<!-- Generator: Adobe Illustrator 16.0.0, SVG Export Plug-In . SVG Version: 6.00 Build 0)  -->
<!DOCTYPE svg PUBLIC "-//W3C//DTD SVG 1.1//EN" "http://www.w3.org/Graphics/SVG/1.1/DTD/svg11.dtd">
<svg version="1.1" id="Layer_1" xmlns="http://www.w3.org/2000/svg" xmlns:xlink="http://www.w3.org/1999/xlink" x="0px" y="0px"
	 width="150px" height="50px" viewBox="0 0 150 50" enable-background="new 0 0 150 50" xml:space="preserve">
<g>
	<g>
		<g>
			<path fill="#21A1E1" d="M21.82,11.01c0.54-1.38,1.22-3.94-1.22-4.29c-0.9-0.06-1.95,0.22-2.85,0.83
				c-0.96,0.64-1.63,2.05-1.5,3.04c0.13,0.99,0.22,1.12,0.8,1.86c0.51,0.64,1.6,1.51,2.63,2.15c1.12,0.77,2.31,1.51,3.2,2.37
				c0.93,0.771,1.63,1.7,1.89,2.95c2.05,9.99-15.15,12.46-16.37,4.71c-0.35-2.37,0.71-5.09,3.11-6.28l2.95,3.01
				c-2.47,0.93-3.49,2.53-3.04,3.78c0.51,1.51,3.17,2.049,5.38,0.99c1.15-0.479,2.21-1.5,2.69-3.01c0.61-1.67-0.8-3.07-1.95-4
				c-1.25-0.9-1.99-1.41-3.04-2.18c-1.06-0.86-2.18-2.08-2.75-3.14c-1.57-2.85-0.93-6.34,2.4-8.04c1.86-0.93,3.84-1.28,5.89-1.09
				c2.85,0.32,5.19,1.73,6.05,4.16c0.38,1.19,0.38,2.59,0.06,4.1L21.82,11.01z M39.76,23.18c-2.5,4.61-5.12,5.8-8.77,5.7
				c-6.05-0.19-6.15-7.85-3.17-12.59c2.43-3.78,6.6-4.58,8.42-3.04c1.63,1.31,1.67,3.75,0.71,5.64c-1.44,2.66-4.13,3.65-6.89,3.56
				c0.03,1.54,0.61,3.33,1.99,4c2.47,1.149,5.06-0.771,6.57-3.27H39.76z M30.16,20.94c5.06,0.16,5.64-5.92,4.84-6.56
				c-0.64-0.48-2.05,0.13-3.2,1.95c-0.67,1.02-1.25,2.47-1.6,4.26C30.19,20.71,30.16,20.84,30.16,20.94z M48.35,23.31
				c-2.4,6.57-11.43,8.331-9.74-0.22l3.36-16.82h4.32c-1.09,5.45-3.17,15.41-3.91,19.09c-0.7,3.65,3.75,0.93,4.74-2.05H48.35z
				 M53.96,8.06l-0.93,4.61h2.59l-0.93,1.95h-2.08l-4.45,22.04h-4.61c1.47-7.59,2.92-14.54,4.45-22.03h-2.02l0.83-1.95h1.7
				c1.44-5.22,4.23-9.54,11.75-7.43l-3.11,3.14C55.58,7.14,55,6.98,54.04,7.53L53.96,8.06z M77.311,24.33
				c-1.891,4.04-6.21,4.39-10.601,4.359c-1.12,0-2.27,0-3.33,0c-0.64,0-1.28,0-1.95,0L65.79,6.91c-3.27,1.25-5.57,4.93-3.87,7.91
				l-4.32,1.99C55.91,5.05,73.14,1.14,76.25,7.93c1.28,2.69-0.51,5.67-2.95,7.08c1.86,0.48,3.24,1.63,4,3.08
				C78.3,19.94,78.3,22.28,77.311,24.33z M68.21,16.45l-1.95,10.06C75.16,26.641,75.9,15.81,68.21,16.45z M68.63,14.53
				c2.66-0.32,4.58-1.95,4.52-4.93c0-2.05-1.28-3.04-2.88-3.3L68.63,14.53z M99.28,23.21c-2.21,5.89-9.9,7.979-10.311,2.47
				c-3.399,5.061-10.7,4.131-10.12-2.5c0.45-5.16,2.98-10.31,8.711-10.5h8.1L95.4,13.9c-0.99,4.9-1.67,7.75-2.4,11.43
				c-0.7,3.65,3.97,0.9,5.029-2.11h1.251V23.21z M90.6,15.62c-1.949-3.55-5.729-0.1-6.85,5.09c-1.22,5.8,0.9,8.81,5.32,2.85
				L90.6,15.62z M108,16.16c0.42-1.44-0.32-2.11-1.35-2.24c-0.7-0.06-1.541,0.13-2.24,0.58c-0.77,0.42-1.28,1.35-1.15,1.99
				c0.1,0.71,0.221,0.8,0.641,1.28c0.449,0.45,1.31,0.99,2.18,1.44c0.859,0.48,1.859,0.99,2.6,1.57
				c0.771,0.58,1.311,1.189,1.57,2.02c0.99,3.46-2.4,5.601-6.02,6.12c-0.45,1.76-1.631,3.811-3.07,4.8
				c-11.24,7.78-65.05-3.36-87.18,7.4l-5.64-5.83c18.45-8.771,78.79-0.32,90.51-2.75c1.99-0.38,3.041-1.63,3.07-3.56
				c-2.47-0.131-4.71-1.121-5.09-3.041c-1.25-5.64,6.98-5.54,7.529,0.641c0.58-0.38,1.021-0.93,1.281-1.63
				c0.449-1.09-0.671-2.05-1.671-2.69c-1.02-0.64-1.6-0.93-2.43-1.47c-0.86-0.58-1.79-1.41-2.31-2.11c-1.28-1.89-0.9-4.23,1.76-5.41
				c1.47-0.61,3.56-0.83,5.16-0.7c2.149,0.16,4.16,1.02,4.899,2.79c0.32,0.8,0.421,1.76,0.16,2.79L108,16.16z M124.777,23.458
				l0.742-0.278c-2.5,4.61-5.119,5.8-8.779,5.7c-6.051-0.19-6.15-7.85-3.17-12.59c2.439-3.78,6.6-4.58,8.42-3.04
				c1.63,1.31,1.67,3.75,0.699,5.64c-1.439,2.66-4.129,3.65-6.89,3.56c0.03,1.54,0.61,3.33,1.99,4c2.47,1.149,5.06-0.771,6.569-3.27
				h1.16L124.777,23.458z M115.91,20.94c5.06,0.16,5.64-5.92,4.84-6.56c-0.641-0.48-2.05,0.13-3.2,1.95
				c-0.67,1.02-1.25,2.47-1.6,4.26C115.939,20.71,115.91,20.84,115.91,20.94z M143.52,23.11c-2.239,5.99-9.859,8.14-10.31,2.5
				c-3.39,5.091-10.66,4.201-10.09-2.529c0.87-9.74,8.97-11.98,11.69-9.74c0.189,0.16,0.319,0.32,0.449,0.48
				c0.23-1.06,0.42-2.15,0.67-3.23c-3.869-0.35-8.84-1.63-10.09-3.49l0.551-3.91c1.149,1.76,5.83,4.61,9.93,5.61
				c2.85-12.65,11.75-0.93,3.939,1.57c-0.859,4.93-1.949,9.96-2.85,14.83c-0.77,3.78,3.81,0.96,4.87-2.08h1.239V23.11z
				 M134.93,15.49c-2.05-3.55-5.83-0.03-6.92,5.13c-1.22,5.86,0.9,8.84,5.35,2.88L134.93,15.49z"/>
		</g>
	</g>
</g>
<g>
	<path fill="#999999" d="M34.763,38.416h1.727l-1.248,6.573h3.106L38.061,46.5h-4.833L34.763,38.416z"/>
	<path fill="#999999" d="M43.905,46.164c-0.684,0.348-1.535,0.456-2.183,0.456c-1.679,0-2.542-0.947-2.542-2.471
		c0-1.787,1.295-3.646,3.418-3.646c1.188,0,2.039,0.66,2.039,1.751c0,1.5-1.451,2.039-3.802,1.979c0,0.168,0.06,0.432,0.18,0.6
		c0.228,0.3,0.624,0.456,1.127,0.456c0.635,0,1.175-0.145,1.643-0.372L43.905,46.164z M42.382,41.763
		c-0.804,0-1.259,0.659-1.379,1.211c1.343,0.013,2.015-0.18,2.015-0.707C43.018,41.967,42.777,41.763,42.382,41.763z"/>
	<path fill="#999999" d="M48.85,46.5c0.012-0.348,0.048-0.743,0.084-1.163h-0.036c-0.54,0.972-1.284,1.295-1.967,1.295
		c-1.055,0-1.775-0.815-1.775-2.039c0-1.979,1.307-4.09,4.198-4.09c0.696,0,1.451,0.132,1.943,0.288l-0.624,3.07
		c-0.144,0.756-0.252,1.907-0.228,2.639H48.85z M49.354,41.858c-0.132-0.023-0.3-0.048-0.468-0.048
		c-1.115,0-1.931,1.367-1.931,2.459c0,0.575,0.228,0.971,0.708,0.971c0.516,0,1.151-0.587,1.415-2.026L49.354,41.858z"/>
	<path fill="#999999" d="M51.66,46.5l0.66-3.49c0.168-0.888,0.24-1.871,0.3-2.375h1.5c-0.036,0.396-0.072,0.792-0.108,1.2h0.036
		c0.408-0.78,1.067-1.332,1.871-1.332c0.108,0,0.216,0,0.324,0.013l-0.336,1.679c-0.084-0.012-0.18-0.012-0.275-0.012
		c-1.104,0-1.619,0.983-1.835,2.135L53.387,46.5H51.66z"/>
	<path fill="#999999" d="M56.1,46.5l0.744-3.958c0.144-0.743,0.24-1.391,0.312-1.907h1.535l-0.12,0.972h0.024
		c0.552-0.768,1.284-1.104,2.063-1.104c0.959,0,1.499,0.588,1.499,1.596c0,0.264-0.048,0.707-0.096,0.995L61.413,46.5h-1.728
		l0.612-3.25c0.036-0.204,0.06-0.444,0.06-0.66c0-0.407-0.144-0.695-0.576-0.695c-0.563,0-1.223,0.708-1.463,2.003L57.827,46.5H56.1
		z"/>
	<path fill="#999999" d="M65.483,44.629c0.48,0.288,1.164,0.516,1.907,0.516c0.672,0,1.284-0.312,1.284-0.947
		c0-0.456-0.348-0.756-1.092-1.14c-0.863-0.468-1.679-1.091-1.679-2.146c0-1.631,1.427-2.627,3.19-2.627
		c0.983,0,1.559,0.216,1.907,0.408l-0.54,1.439c-0.264-0.145-0.839-0.372-1.511-0.36c-0.804,0-1.224,0.408-1.224,0.852
		c0,0.468,0.492,0.756,1.175,1.14c0.983,0.516,1.607,1.175,1.607,2.135c0,1.799-1.487,2.723-3.286,2.723
		c-1.127,0-1.931-0.288-2.315-0.576L65.483,44.629z"/>
	<path fill="#999999" d="M77.372,42.914c0,2.146-1.464,3.718-3.502,3.718c-1.487,0-2.483-0.972-2.483-2.423
		c0-2.039,1.416-3.706,3.503-3.706C76.46,40.503,77.372,41.583,77.372,42.914z M73.174,44.173c0,0.684,0.336,1.14,0.936,1.14
		c0.947,0,1.476-1.379,1.476-2.387c0-0.539-0.228-1.115-0.924-1.115C73.666,41.811,73.162,43.262,73.174,44.173z"/>
	<path fill="#999999" d="M77.892,46.5l0.731-3.958c0.132-0.743,0.228-1.391,0.3-1.907h1.487l-0.108,0.948h0.024
		c0.527-0.756,1.247-1.08,2.003-1.08c0.936,0,1.343,0.588,1.391,1.104c0.528-0.755,1.26-1.104,2.016-1.104
		c0.911,0,1.438,0.576,1.438,1.571c0,0.252-0.048,0.708-0.107,1.008L86.431,46.5h-1.667l0.588-3.202
		c0.048-0.24,0.084-0.492,0.084-0.72c0-0.408-0.181-0.695-0.588-0.695c-0.576,0-1.14,0.779-1.367,1.955L82.988,46.5h-1.667
		l0.6-3.227c0.048-0.239,0.084-0.468,0.084-0.671c0-0.396-0.132-0.72-0.552-0.72c-0.588,0-1.199,0.827-1.415,1.979L79.559,46.5
		H77.892z"/>
	<path fill="#999999" d="M92.769,46.164c-0.684,0.348-1.535,0.456-2.183,0.456c-1.68,0-2.543-0.947-2.543-2.471
		c0-1.787,1.295-3.646,3.418-3.646c1.188,0,2.039,0.66,2.039,1.751c0,1.5-1.451,2.039-3.802,1.979c0,0.168,0.06,0.432,0.18,0.6
		c0.228,0.3,0.624,0.456,1.127,0.456c0.636,0,1.176-0.145,1.644-0.372L92.769,46.164z M91.245,41.763
		c-0.804,0-1.26,0.659-1.379,1.211c1.343,0.013,2.015-0.18,2.015-0.707C91.881,41.967,91.641,41.763,91.245,41.763z"/>
	<path fill="#999999" d="M97.197,38.992l-0.313,1.643h1.248l-0.252,1.308h-1.248l-0.396,1.991c-0.048,0.239-0.096,0.539-0.096,0.743
		c0,0.288,0.12,0.492,0.491,0.492c0.156,0,0.324,0,0.48-0.024L96.909,46.5c-0.216,0.084-0.647,0.132-1.02,0.132
		c-1.031,0-1.523-0.527-1.523-1.259c0-0.324,0.036-0.648,0.12-1.092l0.456-2.339h-0.744l0.24-1.308h0.756l0.239-1.234L97.197,38.992
		z"/>
	<path fill="#999999" d="M98.051,46.5l1.606-8.516h1.728l-0.647,3.395l0.023,0.012c0.479-0.539,1.092-0.888,1.871-0.888
		c0.911,0,1.476,0.576,1.476,1.583c0,0.276-0.048,0.72-0.108,1.056l-0.636,3.358h-1.727l0.6-3.214
		c0.048-0.229,0.084-0.48,0.084-0.732c0-0.384-0.168-0.659-0.6-0.659c-0.6,0-1.212,0.731-1.439,1.919L99.777,46.5H98.051z"/>
	<path fill="#999999" d="M104.807,46.5l1.115-5.865h1.727l-1.115,5.865H104.807z M106.161,39.064
		c0.013-0.588,0.468-0.983,0.996-0.983c0.504,0,0.863,0.335,0.863,0.852c0,0.611-0.468,0.971-1.02,0.971
		C106.521,39.903,106.161,39.58,106.161,39.064z"/>
	<path fill="#999999" d="M107.987,46.5l0.743-3.958c0.144-0.743,0.24-1.391,0.312-1.907h1.535l-0.119,0.972h0.023
		c0.552-0.768,1.283-1.104,2.063-1.104c0.959,0,1.499,0.588,1.499,1.596c0,0.264-0.048,0.707-0.097,0.995L113.3,46.5h-1.727
		l0.611-3.25c0.036-0.204,0.06-0.444,0.06-0.66c0-0.407-0.144-0.695-0.575-0.695c-0.563,0-1.224,0.708-1.463,2.003l-0.492,2.603
		H107.987z"/>
	<path fill="#999999" d="M115.127,47.315c0.323,0.192,1.043,0.324,1.535,0.324c0.863,0,1.511-0.384,1.751-1.56l0.096-0.491h-0.024
		c-0.455,0.587-0.983,0.863-1.679,0.863c-1.163,0-1.871-0.947-1.883-2.087c0-1.943,1.379-3.862,3.934-3.862
		c0.828,0,1.56,0.145,2.171,0.408l-0.888,4.833c-0.204,1.08-0.527,2.039-1.235,2.603c-0.636,0.504-1.487,0.66-2.267,0.66
		s-1.511-0.145-1.907-0.372L115.127,47.315z M119.156,41.931c-0.132-0.061-0.384-0.108-0.623-0.108
		c-1.044,0-1.787,1.164-1.787,2.279c0,0.588,0.264,1.02,0.791,1.02c0.563,0,1.14-0.624,1.319-1.619L119.156,41.931z"/>
	<path fill="#999999" d="M123.718,46.5l1.535-8.084h2.027l1.067,3.083c0.324,1.031,0.54,1.871,0.731,2.758h0.036
		c0.036-0.827,0.144-1.715,0.372-2.902l0.552-2.938h1.606l-1.522,8.084h-1.787l-1.128-3.227c-0.359-1.091-0.575-1.822-0.791-2.818
		l-0.036,0.013c-0.096,0.779-0.288,1.931-0.528,3.202l-0.527,2.83H123.718z"/>
	<path fill="#999999" d="M136.544,46.164c-0.684,0.348-1.535,0.456-2.183,0.456c-1.68,0-2.543-0.947-2.543-2.471
		c0-1.787,1.295-3.646,3.418-3.646c1.188,0,2.039,0.66,2.039,1.751c0,1.5-1.451,2.039-3.802,1.979c0,0.168,0.06,0.432,0.18,0.6
		c0.228,0.3,0.624,0.456,1.127,0.456c0.636,0,1.176-0.145,1.644-0.372L136.544,46.164z M135.021,41.763
		c-0.804,0-1.26,0.659-1.379,1.211c1.343,0.013,2.015-0.18,2.015-0.707C135.656,41.967,135.416,41.763,135.021,41.763z"/>
	<path fill="#999999" d="M139.856,40.635l0.013,2.483c0,0.671-0.024,1.223-0.061,1.871h0.024c0.204-0.624,0.468-1.212,0.72-1.8
		l1.151-2.555h1.415l0.144,2.471c0.024,0.684,0.048,1.26,0.013,1.884h0.035c0.192-0.648,0.396-1.224,0.648-1.907l0.995-2.447h1.739
		l-2.854,5.865h-1.619l-0.168-2.039c-0.036-0.611-0.048-1.175-0.048-1.883h-0.024c-0.312,0.827-0.456,1.26-0.695,1.799l-0.995,2.123
		h-1.632l-0.552-5.865H139.856z"/>
</g>
</svg>
